<svg
    xmlns="http://www.w3.org/2000/svg"
    xml:space="preserve"
    style="fill-rule: evenodd; clip-rule: evenodd; stroke-miterlimit: 10"
    viewBox="0 0 360 261"
>
    <path
        d="M0 4.484c-1.601 1.908-5.624 5.469-9.842 1.84-4.673-4.021.618-10.344 3.225-11.793L0 4.484Z"
        style="fill: none; stroke: url(#a); stroke-width: 1.83px"
        transform="translate(101.09 155.92) scale(2.66667)"
    />
    <path
        d="M0 15.132c-2.408-2.021-3.022-5.091-1.001-7.499L5.01.469c2.021-2.408 5.644-2.725 8.052-.704 2.408 2.02 2.725 5.644.704 8.051L7.755 14.98c-2.021 2.408-5.347 2.173-7.755.152Z"
        style="fill: none; stroke: url(#b); stroke-width: 1.83px"
        transform="translate(93.06 160.28) scale(2.66667)"
    />
    <path
        d="M0 15.132c-2.408-2.021-3.022-5.091-1.001-7.499L5.01.469c2.021-2.408 5.644-2.725 8.052-.704 2.408 2.02 2.725 5.643.704 8.051L7.755 14.98c-2.021 2.408-5.347 2.172-7.755.152Z"
        style="fill: none; stroke: url(#c); stroke-width: 1.83px"
        transform="translate(116.4 179.87) scale(2.66667)"
    />
    <path
        d="M0 11.113c-2.046-1.717-2.724-4.17-1.007-6.216l3.03-4.01A4.87 4.87 0 0 1 8.865.289a4.87 4.87 0 0 1 .599 6.842L7.723 9.435C6.006 11.481 2.905 12.541 0 11.113Z"
        style="fill: none; stroke: url(#d); stroke-width: 1.83px"
        transform="translate(144.24 202.64) scale(2.66667)"
    />
    <path
        d="M0-35.722s-4.188 3.97-9.598 10.147c-2.496 2.85-5.278 5.756-7.857 4.691-2.495-1.03-2.498-4.525-2.498-7.218 0-2.692-.079-7.62 2.633-12.418 1.636-2.893 7.169-8.17 13.084-11.728l-.211-.823S-8.31-55.86-13.39-55.86c-9.814 0-19.985 4.639-19.985 4.639l-14.547 25.197c4.537 2.865 6.921 6.021 8.923 9.281l.027-.017 6.602 9.931.017.02 1.996-2.378c2.02-2.408 5.643-2.725 8.051-.704 2.408 2.02 2.725 5.643.705 8.051 2.02-2.408 5.643-2.725 8.051-.704 2.408 2.02 2.725 5.643.705 8.051l-3.836 4.571.158.178 2.374-3.142a4.87 4.87 0 0 1 6.842-.598 4.87 4.87 0 0 1 .598 6.842l-2.981 3.944c5.081 2.836 9.646 1.076 11.396.224 1.872-.911 3.988-2.797 2.519-4.006L.76 10.959s.457.085 3.465 2.561c3.636 1.596 6.334.519 7.957-.76 1.844-1.455 2.3-4.572 1.424-6.013L4.431.152l9.175 6.595c2.873 1.815 7.503.752 8.969-1.362 1.462-2.107 1.358-4.605-.814-5.933L9.329-10.134 21.761-.548c2.624 2.139 6.137 1.528 8.414-.647 2.278-2.175 3.144-6.723-.028-9.288L0-35.722Z"
        style="fill: none; stroke: url(#e); stroke-width: 1.83px"
        transform="translate(187.37 186.03) scale(2.66667)"
    />
    <path
        d="m0 14.243-14.547-25.197-20.666-4.639S-56.762-5.052-59.474-.253c-2.712 4.798-2.633 9.725-2.633 12.418 0 2.692.003 6.188 2.498 7.218 2.579 1.065 5.361-1.841 7.857-4.691 5.41-6.177 9.598-10.147 9.598-10.147l30.147 25.239c.02.016.031.036.05.052C-6.014 23.507-6.245 16.406 0 14.243Z"
        style="fill: none; stroke: url(#f); stroke-width: 1.83px"
        transform="translate(299.78 78.65) scale(2.66667)"
    />
    <path
        d="m0 35.513-5.399-3.117a4.169 4.169 0 0 1-1.522-5.678L7.627 1.521A4.169 4.169 0 0 1 13.305 0l5.399 3.117a4.169 4.169 0 0 1 1.521 5.678L5.678 33.992A4.17 4.17 0 0 1 0 35.513Z"
        style="fill: none; stroke: url(#g); stroke-width: 1.83px"
        transform="translate(44.44 25.99) scale(2.66667)"
    />
    <path
        d="m0 35.513 5.399-3.117a4.169 4.169 0 0 0 1.522-5.678L-7.627 1.521A4.169 4.169 0 0 0-13.305 0l-5.399 3.117a4.169 4.169 0 0 0-1.521 5.678l14.547 25.197A4.17 4.17 0 0 0 0 35.513Z"
        style="fill: none; stroke: url(#h); stroke-width: 1.83px"
        transform="translate(314.92 25.99) scale(2.66667)"
    />
    <defs>
        <linearGradient
            id="a"
            x1="0"
            x2="1"
            y1="0"
            y2="0"
            gradientTransform="translate(-12.617 1.06) scale(13.7568)"
            gradientUnits="userSpaceOnUse"
        >
            <stop offset="0" style="stop-color: #304d91; stop-opacity: 1" />
            <stop offset="1" style="stop-color: #3e9c46; stop-opacity: 1" />
        </linearGradient>
        <linearGradient
            id="b"
            x1="0"
            x2="1"
            y1="0"
            y2="0"
            gradientTransform="translate(-3.13 7.576) scale(19.1412)"
            gradientUnits="userSpaceOnUse"
        >
            <stop offset="0" style="stop-color: #304d91; stop-opacity: 1" />
            <stop offset="1" style="stop-color: #3e9c46; stop-opacity: 1" />
        </linearGradient>
        <linearGradient
            id="c"
            x1="0"
            x2="1"
            y1="0"
            y2="0"
            gradientTransform="translate(-3.13 7.58) scale(19.1412)"
            gradientUnits="userSpaceOnUse"
        >
            <stop offset="0" style="stop-color: #304d91; stop-opacity: 1" />
            <stop offset="1" style="stop-color: #3e9c46; stop-opacity: 1" />
        </linearGradient>
        <linearGradient
            id="d"
            x1="0"
            x2="1"
            y1="0"
            y2="0"
            gradientTransform="translate(-2.898 5.463) scale(14.407)"
            gradientUnits="userSpaceOnUse"
        >
            <stop offset="0" style="stop-color: #304d91; stop-opacity: 1" />
            <stop offset="1" style="stop-color: #3e9c46; stop-opacity: 1" />
        </linearGradient>
        <linearGradient
            id="e"
            x1="0"
            x2="1"
            y1="0"
            y2="0"
            gradientTransform="translate(-49.154 -18.5) scale(82.2844)"
            gradientUnits="userSpaceOnUse"
        >
            <stop offset="0" style="stop-color: #304d91; stop-opacity: 1" />
            <stop offset="1" style="stop-color: #3e9c46; stop-opacity: 1" />
        </linearGradient>
        <linearGradient
            id="f"
            x1="0"
            x2="1"
            y1="0"
            y2="0"
            gradientTransform="translate(-63.022 7.287) scale(64.3675)"
            gradientUnits="userSpaceOnUse"
        >
            <stop offset="0" style="stop-color: #304d91; stop-opacity: 1" />
            <stop offset="1" style="stop-color: #3e9c46; stop-opacity: 1" />
        </linearGradient>
        <linearGradient
            id="g"
            x1="0"
            x2="1"
            y1="0"
            y2="0"
            gradientTransform="translate(-8.389 17.756) scale(30.082)"
            gradientUnits="userSpaceOnUse"
        >
            <stop offset="0" style="stop-color: #304d91; stop-opacity: 1" />
            <stop offset="1" style="stop-color: #3e9c46; stop-opacity: 1" />
        </linearGradient>
        <linearGradient
            id="h"
            x1="0"
            x2="1"
            y1="0"
            y2="0"
            gradientTransform="translate(-21.694 17.756) scale(30.082)"
            gradientUnits="userSpaceOnUse"
        >
            <stop offset="0" style="stop-color: #304d91; stop-opacity: 1" />
            <stop offset="1" style="stop-color: #3e9c46; stop-opacity: 1" />
        </linearGradient>
    </defs>
</svg>
