<svg
    xmlns="http://www.w3.org/2000/svg"
    xml:space="preserve"
    style="
        fill-rule: evenodd;
        clip-rule: evenodd;
        stroke-linejoin: round;
        stroke-miterlimit: 2;
    "
    viewBox="0 0 271 253"
>
    <path
        d="M.686.264h.093v-.04h.016V.28H.719l.128.161L.968.28H.892V.142h.016v.122H1L.847.467.686.264ZM.539.15a.033.033 0 0 1-.027.015H.157A.032.032 0 0 1 .125.133V.114h.016v.019c0 .009.008.016.016.017h.355C.52.15.526.144.528.137a.193.193 0 0 1-.032-.06H.222V.062h.269A.233.233 0 0 1 .484.009l.001-.02H.293v-.015h.194a.229.229 0 0 1 .027-.073H.24v-.016h.284l.014-.017v-.039a.016.016 0 0 0-.016-.016H.377v-.016h.065L.439-.212.438-.214v-.045c0-.017.014-.032.032-.032h.028a.034.034 0 0 1-.005-.017V-.351h.001v-.004l.004-.008H.381v-.016h.092L.469-.391V-.44a.036.036 0 0 1 .004-.011H.381v-.016h.474c.018 0 .032.014.032.032v.039a.033.033 0 0 1-.004.017.032.032 0 0 1 .029.032v.039a.032.032 0 0 1-.032.033H.852c.003.004.005.01.005.016v.039a.033.033 0 0 1-.033.033h-.05A.21.21 0 1 1 .539.15ZM.5.009a.196.196 0 1 0 .196-.196A.196.196 0 0 0 .5.009Zm.054-.18v.023a.207.207 0 0 1 .063-.039H.55c.003.004.004.01.004.016Zm.27-.032A.018.018 0 0 0 .841-.22v-.039c0-.009-.008-.016-.017-.016H.47a.016.016 0 0 0-.016.016v.039c0 .009.007.017.016.017h.354ZM.88-.291c.009 0 .016-.008.016-.017v-.039A.016.016 0 0 0 .88-.363H.525a.016.016 0 0 0-.016.016v.039c0 .009.007.017.016.017H.88ZM.855-.379a.018.018 0 0 0 .017-.017v-.039c0-.009-.008-.016-.017-.016H.501a.016.016 0 0 0-.016.016v.039c0 .009.007.016.016.017h.354Zm-.31.388c0-.083.068-.151.151-.151a.15.15 0 1 1-.151.151Zm.016 0a.134.134 0 0 0 .269 0 .135.135 0 0 0-.134-.135.135.135 0 0 0-.135.135ZM0-.084h.093v-.383h.016v.399H.033l.128.161.121-.161H.206v-.148h.016v.132h.092L.161.119 0-.084Zm.688.182V.082a.04.04 0 0 1-.033-.04.04.04 0 0 1 .041-.041.026.026 0 0 0 .025-.025.025.025 0 0 0-.025-.025.025.025 0 0 0-.025.025H.655a.04.04 0 0 1 .033-.04V-.08h.016v.016a.04.04 0 0 1 .033.04.042.042 0 0 1-.041.041.025.025 0 0 0-.025.025c0 .013.011.025.025.025A.026.026 0 0 0 .721.042h.016c0 .02-.015.036-.033.04v.016H.688Zm.204-.35h.016v.145H.892v-.145Zm-.751-.09h.092v-.125h.016v.141H.174l.127.162.122-.162H.346v-.141h.016v.125h.092l-.152.204-.161-.204Z"
        style="fill: url(#a); fill-rule: nonzero"
        transform="matrix(270.036 0 0 -270.036 0 126.19)"
    />
    <defs>
        <linearGradient
            id="a"
            x1="0"
            x2="1"
            y1="0"
            y2="0"
            gradientTransform="matrix(1 0 0 -1 0 0)"
            gradientUnits="userSpaceOnUse"
        >
            <stop offset="0" style="stop-color: #304d91; stop-opacity: 1" />
            <stop offset="1" style="stop-color: #3e9c46; stop-opacity: 1" />
        </linearGradient>
    </defs>
</svg>
