<svg
    xmlns="http://www.w3.org/2000/svg"
    xml:space="preserve"
    style="fill-rule: evenodd; clip-rule: evenodd; stroke-miterlimit: 10"
    viewBox="0 0 328 302"
>
    <path
        d="M0-16.074a13.79 13.79 0 0 0-6.072-2.105l-6.612 6.613-6.613-6.613c-7.007.695-12.481 6.605-12.481 13.795v6.489"
        style="
            fill: none;
            fill-rule: nonzero;
            stroke: url(#a);
            stroke-width: 1.83px;
        "
        transform="translate(109.25 271.16) scale(2.66667)"
    />
    <path
        d="m0-26.99 2.832 8.716h9.165c1.569 0 2.221 2.008.952 2.93L5.534-9.957l2.832 8.716C8.851.251 7.143 1.492 5.874.57L-1.54-4.817-8.955.57c-1.269.922-2.977-.319-2.492-1.811l2.832-8.716-7.414-5.387c-1.27-.922-.617-2.93.952-2.93h9.164l2.833-8.716c.484-1.492 2.595-1.492 3.08 0Z"
        style="
            fill: none;
            fill-rule: nonzero;
            stroke: url(#b);
            stroke-width: 1.83px;
        "
        transform="translate(169.46 99.46) scale(2.66667)"
    />
    <circle
        cx="-13.598"
        r="13.598"
        style="fill: none; stroke: url(#c); stroke-width: 1.83px"
        transform="matrix(0 -2.66667 -2.66667 0 165.36 120.88)"
    />
    <circle
        cx="-10.977"
        r="10.977"
        style="fill: none; stroke: url(#d); stroke-width: 1.83px"
        transform="matrix(0 -2.66667 -2.66667 0 254.87 148.23)"
    />
    <circle
        cx="-10.977"
        r="10.977"
        style="fill: none; stroke: url(#e); stroke-width: 1.83px"
        transform="matrix(0 -2.66667 -2.66667 0 73.54 148.23)"
    />
    <path
        d="M0 24.97v-7.988C0 8.13-6.738.855-15.365 0l-8.14 8.14L-31.646 0c-8.626.855-15.365 8.13-15.365 16.982v7.988"
        style="
            fill: none;
            fill-rule: nonzero;
            stroke: url(#f);
            stroke-width: 1.83px;
        "
        transform="translate(225.6 210.19) scale(2.66667)"
    />
    <path
        d="M0-16.074a13.79 13.79 0 0 1 6.072-2.105l6.612 6.613 6.613-6.613c7.007.695 12.481 6.605 12.481 13.795v6.489"
        style="
            fill: none;
            fill-rule: nonzero;
            stroke: url(#g);
            stroke-width: 1.83px;
        "
        transform="translate(218.21 271.16) scale(2.66667)"
    />
    <defs>
        <linearGradient
            id="a"
            x1="0"
            x2="1"
            y1="0"
            y2="0"
            gradientTransform="translate(-32.692 -8.51) scale(33.1846)"
            gradientUnits="userSpaceOnUse"
        >
            <stop offset="0" style="stop-color: #304d91; stop-opacity: 1" />
            <stop offset="1" style="stop-color: #3e9c46; stop-opacity: 1" />
        </linearGradient>
        <linearGradient
            id="b"
            x1="0"
            x2="1"
            y1="0"
            y2="0"
            gradientTransform="translate(-17.614 -13.612) scale(32.1483)"
            gradientUnits="userSpaceOnUse"
        >
            <stop offset="0" style="stop-color: #304d91; stop-opacity: 1" />
            <stop offset="1" style="stop-color: #3e9c46; stop-opacity: 1" />
        </linearGradient>
        <linearGradient
            id="c"
            x1="0"
            x2="1"
            y1="0"
            y2="0"
            gradientTransform="scale(29.0243) rotate(-90 .016 .484)"
            gradientUnits="userSpaceOnUse"
        >
            <stop offset="0" style="stop-color: #304d91; stop-opacity: 1" />
            <stop offset="1" style="stop-color: #3e9c46; stop-opacity: 1" />
        </linearGradient>
        <linearGradient
            id="d"
            x1="0"
            x2="1"
            y1="0"
            y2="0"
            gradientTransform="scale(23.783) rotate(-90 .02 .48)"
            gradientUnits="userSpaceOnUse"
        >
            <stop offset="0" style="stop-color: #304d91; stop-opacity: 1" />
            <stop offset="1" style="stop-color: #3e9c46; stop-opacity: 1" />
        </linearGradient>
        <linearGradient
            id="e"
            x1="0"
            x2="1"
            y1="0"
            y2="0"
            gradientTransform="scale(23.783) rotate(-90 .02 .48)"
            gradientUnits="userSpaceOnUse"
        >
            <stop offset="0" style="stop-color: #304d91; stop-opacity: 1" />
            <stop offset="1" style="stop-color: #3e9c46; stop-opacity: 1" />
        </linearGradient>
        <linearGradient
            id="f"
            x1="0"
            x2="1"
            y1="0"
            y2="0"
            gradientTransform="translate(-47.926 12.005) scale(48.8395)"
            gradientUnits="userSpaceOnUse"
        >
            <stop offset="0" style="stop-color: #304d91; stop-opacity: 1" />
            <stop offset="1" style="stop-color: #3e9c46; stop-opacity: 1" />
        </linearGradient>
        <linearGradient
            id="g"
            x1="0"
            x2="1"
            y1="0"
            y2="0"
            gradientTransform="matrix(-33.1846 0 0 33.1846 32.691 -8.51)"
            gradientUnits="userSpaceOnUse"
        >
            <stop offset="0" style="stop-color: #304d91; stop-opacity: 1" />
            <stop offset="1" style="stop-color: #3e9c46; stop-opacity: 1" />
        </linearGradient>
    </defs>
</svg>
